# xmcd CD database file
#
# Track frame offsets:
#	150
#	26007
#	45292
#	60165
#	77662
#	97002
#	116126
#	136876
#	154119
#	172955
#	193598
#	225858
#	244141
#
# Disc length: 3591 seconds
#
# Revision: 0
# Processed by: cddbd v1.5.1PL0 Copyright (c) Steve Scherf et al.
# Submitted via: CDex 1.40Beta9
#
DISCID=960e050d
DTITLE=Trickbag -  Cacti Redux
DYEAR=2004
DGENRE=Blues
TTITLE0=Let the Good Times Roll
TTITLE1=Walkin' to My Baby
TTITLE2=Good Rockin' Daddy
TTITLE3=Get There When You Get There
TTITLE4=Rainin' In My Heart
TTITLE5=I Know
TTITLE6=T Bone Shuffle
TTITLE7=Friends on Friday
TTITLE8=Pockey Way
TTITLE9=Saturday Night Fish Fry
TTITLE10=Blue Light Boogie
TTITLE11=Georgia Slop
TTITLE12=Now I'm Good
EXTD=YEAR: 2004 ID3G: 0
EXTT0=
EXTT1=
EXTT2=
EXTT3=
EXTT4=
EXTT5=
EXTT6=
EXTT7=
EXTT8=
EXTT9=
EXTT10=
EXTT11=
EXTT12=
PLAYORDER=
